<?xml version="1.0" encoding="UTF-8"?><svg id="b" xmlns="http://www.w3.org/2000/svg" width="151.247mm" height="152.271mm" viewBox="0 0 428.731 431.635"><g id="c"><path d="m49.527,388.775c-4.415,18.997-30.627,15.106-30.114-3.815.1-22.89.212-45.783-.055-68.67-.111-9.248,8.787-16.647,18.032-15.495,21.888-.023,43.776-.018,65.664-.014,6.861.001,12.341,2.595,15.446,8.92,5.484,10.594-4.904,22.481-16.065,21.568-10.65-.075-21.3-.02-31.961-.02,100.7,127.059,306.576,69.587,327.625-91.557-1.675-18.282,23.419-27.72,30.618-8.046.461,28.136-9.601,56.48-21.616,81.709-34.703,69.657-109.264,116.489-186.835,118.208-64.828,1.745-127.816-27.482-170.453-75.955,0,10.679,0,21.357,0,32.036-.43.293-.446.691-.285,1.133Z" fill="#fff"/><path d="m380.001,45.004c.729-21.689,32.566-17.42,29.946,3.485-.005,20.522-.007,41.044.001,61.567,1.677,9.861-3.765,20.394-14.546,20.907-23.885-.012-47.772.07-71.657-.054-7.52-.039-13.626-6.763-14.216-13.942.749-24.802,33.528-14.318,50.015-16.454-48.139-60.847-135.03-85.485-207.802-58.44-68.18,23.323-115.23,88.626-122.184,159.406-4.49,12.577-25.259,12.448-28.607-1.036-.452-2.419-1.84-4.791-.096-7.244.18-6.685,1.434-13.859,2.72-20.619C26.087,56.831,145.041-20.869,260.117,5.143c46.093,9.809,87.337,34.705,118.132,70.335.215.243.502.423.756.632,1.602.798,1.067-.609,1.067-1.147.003-9.986-.038-19.973-.07-29.959Z" fill="#fff"/><path d="m230.114,132.501c11.516,3.602,23.799,5.631,33.805,13.029,10.166,6.61,4.541,24.145-6.643,27.035-3.616.84-7.106.604-10.281-1.596-8.066-5.588-17.079-8.647-26.727-10.059-11.702-1.852-24.758-1.923-34.27,6.405-6.434,6.201-5.791,18.675,3.39,23.581,21.173,10.844,46.179,9.665,66.953,21.832,36.567,18.692,27.989,69.125-8.373,82.579-5.618,2.509-11.629,3.613-17.672,4.534-3.364,12.963,6.29,34.831-11.131,40.685-10.385,3.527-19.845-5.502-19.523-14.277-.548-3.602,2.081-27.588-1.87-26.542-14.724-3.097-58.939-13.993-46.114-35.705,4.656-8.608,15.953-11.118,23.795-4.895,19.643,14.177,58.137,21.792,71.707-3.747,6.444-29.866-65.354-16.809-91.171-56.546-15.908-21.53-1.175-51.266,21.609-60.873,6.19-2.932,12.738-4.669,19.53-5.48,1.754-.209,2.669-.747,2.634-2.863-.139-8.32.013-16.645-.073-24.966.839-17.342,27.127-18.59,30.067-1.186.349,9.597-.724,19.675.357,29.054Z" fill="#fff"/><path d="m410.051,117.52c-.178-24.002-.2-48.016-.011-72.016.751,23.622.717,48.279.011,72.016Z" fill="#9d9c9c"/><path d="m380.001,45.004c.032,9.986.074,19.973.07,29.959,0,.537.534,1.944-1.067,1.147,1.087-.597.576-1.63.58-2.448.41-9.48-.69-19.419.417-28.658Z" fill="#9d9c9c"/><path d="m230.114,132.501c-1.081-9.386-.009-19.449-.357-29.055,1.16,9.5.033,19.416.357,29.055Z" fill="#9d9c9c"/><path d="m229.77,328.302c.511-9.321-1.062-19.6.527-28.461-.413,9.43.714,19.205-.527,28.461Z" fill="#9d9c9c"/><path d="m209.714,431.572c3.516-.687,7.034-.675,10.552-.011-3.517.004-7.034.007-10.552.011Z" fill="#9d9c9c"/><path d="m220.762.561c-3.189-.006-6.378-.012-9.566-.017,3.19-.844,6.379-.6,9.566.017Z" fill="#9d9c9c"/><path d="m49.527,388.775c-.161-.442-.145-.839.285-1.133.164.443.116.832-.285,1.133Z" fill="#9d9c9c"/></g></svg>