<svg width="455" height="455" viewBox="0 0 455 455" fill="none" xmlns="http://www.w3.org/2000/svg">
<path d="M202.683 143.156C178.145 138.9 61.6939 159.679 103.521 114.042C199.164 109.89 140.35 124.425 177.013 77.1975C196.371 74.9591 197.398 94.6187 196.024 108.063C209.885 125.868 268.549 94.0002 268.594 132.024C261.045 149.606 232.112 135.749 232.928 161.019C231.252 182.299 197.428 207.656 207.017 224.886C219.927 243.515 288.692 261.039 256.983 286.207C225.273 292.818 202.502 245.591 176.303 244.531C104.865 314.436 52.4224 283.776 153.849 224.239C161.867 210.706 139.248 196.112 135.745 182.092C125.265 163.169 152.082 149.385 161.988 168.058C168.254 173.434 174.809 199.131 183.083 192.136C190.377 180.487 213.721 145.189 202.667 143.171L202.683 143.156Z" fill="white"/>
<rect x="15" y="15" width="333.133" height="333.863" rx="84.5396" stroke="white" stroke-width="30"/>
<path d="M346.727 115.091V115.091C398.24 115.091 440 156.85 440 208.364V340.46C440 395.435 395.435 440 340.46 440H208.413C157.233 440 115.743 398.51 115.743 347.33V347.33" stroke="white" stroke-width="30"/>
</svg>