<svg width="702" height="702" viewBox="0 0 702 702" fill="none" xmlns="http://www.w3.org/2000/svg">
<path d="M452.406 249.594L384.122 49.6333C373.336 18.0476 328.664 18.0477 317.878 49.6334L249.594 249.594L49.6333 317.878C18.0476 328.664 18.0477 373.336 49.6334 384.122L249.594 452.406L317.878 652.367C328.664 683.952 373.336 683.952 384.122 652.367L452.406 452.406L652.367 384.122C683.952 373.336 683.952 328.664 652.367 317.878L452.406 249.594Z" stroke="#9323A8" stroke-width="50"/>
<mask id="mask0_655_795" style="mask-type:alpha" maskUnits="userSpaceOnUse" x="0" y="0" width="702" height="702">
<path d="M452.406 249.594L384.122 49.6333C373.336 18.0476 328.664 18.0477 317.878 49.6334L249.594 249.594L49.6333 317.878C18.0476 328.664 18.0477 373.336 49.6334 384.122L249.594 452.406L317.878 652.367C328.664 683.952 373.336 683.952 384.122 652.367L452.406 452.406L652.367 384.122C683.952 373.336 683.952 328.664 652.367 317.878L452.406 249.594Z" stroke="#C38BCE" stroke-width="50"/>
</mask>
<g mask="url(#mask0_655_795)">
<rect x="101.275" y="601.045" width="771.745" height="459.395" transform="rotate(-45 101.275 601.045)" fill="#C38BCE"/>
</g>
</svg>