<svg width="558" height="684" viewBox="0 0 558 684" fill="none" xmlns="http://www.w3.org/2000/svg">
<path d="M340.359 269.388C328.369 257.621 328.369 238.861 328.369 201.341V191.533C328.369 87.5081 328.369 35.4957 299.127 26.534C269.883 17.5726 238.539 59.9797 175.853 144.794L78.8745 276.005C38.1868 331.056 17.8431 358.58 29.0528 380.221C29.2384 380.582 29.4297 380.936 29.6263 381.288C41.5011 402.602 76.637 402.602 146.909 402.602C185.96 402.602 205.485 402.602 217.732 414.12" stroke="#9323A8" stroke-width="50"/>
<path opacity="0.5" d="M340.349 269.391L340.982 270C353.229 281.519 372.757 281.519 411.806 281.519C482.079 281.519 517.214 281.519 529.087 302.833C529.287 303.184 529.477 303.539 529.664 303.897C540.872 325.54 520.527 353.065 479.84 408.114L382.86 539.324C320.172 624.14 288.827 666.546 259.586 657.584C230.342 648.624 230.342 596.609 230.345 492.585V482.78C230.345 445.26 230.345 426.499 218.358 414.733L217.725 414.122" stroke="#9323A8" stroke-width="50"/>
</svg>