<svg width="650" height="684" viewBox="0 0 650 684" fill="none" xmlns="http://www.w3.org/2000/svg">
<path d="M258.332 292.334C331.97 292.334 391.666 232.639 391.666 159.001C391.666 85.3628 331.97 25.6675 258.332 25.6675C184.694 25.6675 124.999 85.3628 124.999 159.001C124.999 232.639 184.694 292.334 258.332 292.334Z" stroke="#48BF92" stroke-width="50"/>
<path d="M258.332 659.001C387.199 659.001 491.666 599.305 491.666 525.667C491.666 452.029 387.199 392.334 258.332 392.334C129.466 392.334 24.999 452.029 24.999 525.667C24.999 599.305 129.466 659.001 258.332 659.001Z" stroke="#48BF92" stroke-width="50"/>
<path opacity="0.5" d="M558.332 25.6675C558.332 25.6675 624.999 65.6675 624.999 159.001C624.999 252.334 558.332 292.334 558.332 292.334" stroke="#48BF92" stroke-width="50" stroke-linecap="round"/>
<path opacity="0.5" d="M491.666 92.334C491.666 92.334 524.999 112.334 524.999 159.001C524.999 205.667 491.666 225.667 491.666 225.667" stroke="#48BF92" stroke-width="50" stroke-linecap="round"/>
</svg>