<svg width="649" height="649" viewBox="0 0 649 649" fill="none" xmlns="http://www.w3.org/2000/svg">
<path opacity="0.5" d="M624.926 324.505H24.0908M204.341 324.505C204.341 363.956 207.451 403.022 213.489 439.469C219.527 475.918 228.378 509.036 239.538 536.933C250.696 564.83 263.944 586.956 278.523 602.055C293.103 617.151 308.727 624.922 324.508 624.922C340.289 624.922 355.914 617.151 370.493 602.055C385.074 586.956 398.321 564.83 409.479 536.933C420.638 509.036 429.489 475.918 435.528 439.469C441.567 403.022 444.675 363.956 444.675 324.505C444.675 285.054 441.567 245.988 435.528 209.54C429.489 173.092 420.638 139.974 409.479 112.078C398.321 84.1814 385.074 62.0527 370.493 46.9552C355.914 31.858 340.289 24.0874 324.508 24.0874C308.727 24.0874 293.103 31.858 278.523 46.9555C263.944 62.0527 250.696 84.1814 239.538 112.078C228.378 139.974 219.527 173.092 213.489 209.54C207.451 245.988 204.341 285.054 204.341 324.505Z" stroke="#1C274C" stroke-width="46.5163" stroke-linecap="round"/>
<path d="M24.0908 324.505C24.0908 363.956 31.8626 403.022 46.9586 439.469C62.0576 475.918 84.1833 509.036 112.08 536.933C139.977 564.83 173.095 586.956 209.545 602.055C245.991 617.151 285.057 624.922 324.508 624.922C363.959 624.922 403.025 617.151 439.473 602.055C475.921 586.956 509.039 564.83 536.936 536.933C564.832 509.036 586.961 475.918 602.058 439.469C617.155 403.022 624.926 363.956 624.926 324.505C624.926 285.054 617.155 245.988 602.058 209.54C586.961 173.092 564.832 139.974 536.936 112.078C509.039 84.1814 475.921 62.0527 439.473 46.9552C403.025 31.858 363.959 24.0874 324.508 24.0874C285.057 24.0874 245.991 31.858 209.545 46.9555C173.095 62.0527 139.977 84.1814 112.08 112.078C84.1833 139.974 62.0576 173.092 46.9586 209.54C31.8626 245.988 24.0908 285.054 24.0908 324.505Z" stroke="#1C274C" stroke-width="46.5163"/>
</svg>