<svg width="22" height="10" viewBox="0 0 22 10" fill="none" xmlns="http://www.w3.org/2000/svg">
<path d="M22 5C22 5.98891 21.699 6.95561 21.1349 7.77786C20.5708 8.6001 19.7691 9.24097 18.8311 9.6194C17.8931 9.99784 16.861 10.0969 15.8652 9.90392C14.8695 9.71099 13.9548 9.23477 13.2369 8.5355C13.2264 8.5253 13.2163 8.51481 13.2065 8.50403L7.711 2.46002C7.19654 1.96469 6.54314 1.62866 5.83305 1.4942C5.12295 1.35975 4.38789 1.43288 3.72038 1.70441C3.05286 1.97593 2.48272 2.43371 2.0817 3.02013C1.68068 3.60655 1.4667 4.2954 1.4667 5C1.4667 5.7046 1.68068 6.39345 2.0817 6.97987C2.48272 7.56629 3.05286 8.02407 3.72038 8.29559C4.38789 8.56712 5.12295 8.64025 5.83305 8.5058C6.54314 8.37135 7.19654 8.03531 7.711 7.53998L8.49191 6.68113C8.55572 6.61078 8.63315 6.55337 8.71976 6.51218C8.80636 6.471 8.90046 6.44685 8.99665 6.44111C9.09285 6.43537 9.18927 6.44816 9.28039 6.47874C9.37151 6.50933 9.45555 6.55711 9.52769 6.61935C9.59984 6.68159 9.65869 6.75707 9.70086 6.84148C9.74304 6.92589 9.76772 7.01757 9.77349 7.11128C9.77926 7.20498 9.76602 7.29888 9.7345 7.38759C9.70299 7.47631 9.65384 7.55811 9.58985 7.6283L8.79359 8.50403C8.78378 8.51479 8.77364 8.52529 8.76315 8.5355C8.04525 9.23477 7.13058 9.71099 6.13481 9.90392C5.13904 10.0969 4.1069 9.99784 3.1689 9.6194C2.23091 9.24097 1.42919 8.60011 0.865126 7.77786C0.301066 6.95561 0 5.98891 0 5C0 4.01109 0.301066 3.04439 0.865126 2.22214C1.42919 1.39989 2.23091 0.759032 3.1689 0.380597C4.1069 0.00216106 5.13904 -0.0968508 6.13481 0.0960817C7.13058 0.289014 8.04525 0.765227 8.76315 1.4645C8.77363 1.4747 8.78377 1.48519 8.79359 1.49597L14.2891 7.53998C14.8035 8.03531 15.4569 8.37135 16.167 8.5058C16.8771 8.64025 17.6122 8.56712 18.2797 8.29559C18.9472 8.02407 19.5173 7.56629 19.9184 6.97987C20.3194 6.39345 20.5334 5.7046 20.5334 5C20.5334 4.2954 20.3194 3.60655 19.9184 3.02013C19.5173 2.43371 18.9472 1.97593 18.2797 1.70441C17.6122 1.43288 16.8771 1.35975 16.167 1.4942C15.4569 1.62866 14.8035 1.96469 14.2891 2.46002L13.5081 3.31887C13.3791 3.46036 13.1977 3.54617 13.0037 3.55748C12.8098 3.56879 12.6192 3.50466 12.4737 3.37918C12.3283 3.2537 12.2399 3.07713 12.228 2.88823C12.2161 2.69934 12.2816 2.51356 12.4102 2.3717L13.2065 1.49597C13.2163 1.48521 13.2264 1.47471 13.2369 1.4645C13.9548 0.765246 14.8695 0.289051 15.8652 0.0961287C16.861 -0.0967931 17.8931 0.00222334 18.8311 0.380657C19.7691 0.75909 20.5708 1.39994 21.1349 2.22218C21.6989 3.04441 22 4.0111 22 5Z" fill="#9323A8"/>
</svg>