<svg width="700" height="538" viewBox="0 0 700 538" fill="none" xmlns="http://www.w3.org/2000/svg">
<path d="M243.167 448.783C235.602 460.49 227.542 472.203 219.214 483.693C204.227 504.373 179.411 516.459 154.335 511.618C92.0928 499.601 55.2368 466.301 37.6632 445.584C28.5106 434.794 25.022 420.726 25.5975 406.589C29.9025 300.839 54.3949 197.072 97.621 101.504C102.473 90.777 109.766 81.2712 119.316 74.3855C155.556 48.257 197.208 31.6799 240.756 26.0292C253.139 24.4223 264.671 31.895 269.415 43.4455V43.4455C274.558 55.9655 287.557 63.2864 301.024 61.9242C317.3 60.2777 333.642 59.404 350 59.306C366.487 59.3636 382.959 60.2028 399.366 61.8203C412.807 63.1455 425.762 55.8229 430.894 43.3297V43.3297C435.65 31.7492 447.226 24.2696 459.637 25.916C503.241 31.7004 544.915 48.4421 581.128 74.7467C590.605 81.6309 597.84 91.1011 602.658 101.778C645.761 197.288 670.16 300.963 674.413 406.607C674.981 420.733 671.493 434.788 662.349 445.57C644.796 466.267 607.988 499.537 545.835 511.585C520.666 516.464 495.754 504.286 480.873 483.41C472.865 472.175 465.127 460.727 457.667 449.077M565.333 398.138C501.333 432.309 439.408 466.466 350 466.466C260.592 466.466 198.667 432.309 134.667 398.138" stroke="#48BF92" stroke-width="50" stroke-linecap="round" stroke-linejoin="round"/>
<path opacity="0.5" d="M191.617 307.167C191.617 276.33 216.614 251.333 247.451 251.333C278.287 251.333 303.284 276.33 303.284 307.167" stroke="#48BF92" stroke-width="50" stroke-linecap="round" stroke-linejoin="round"/>
<path opacity="0.5" d="M396.717 307.167C396.717 276.33 421.713 251.333 452.55 251.333C483.387 251.333 508.383 276.33 508.383 307.167" stroke="#48BF92" stroke-width="50" stroke-linecap="round" stroke-linejoin="round"/>
</svg>