<svg width="187" height="63" viewBox="0 0 187 63" fill="none" xmlns="http://www.w3.org/2000/svg">
<path fill-rule="evenodd" clip-rule="evenodd" d="M176.543 23.5261C176.613 23.5028 177.036 23.5959 177.483 23.7355C177.929 23.8518 178.681 24.3172 179.128 24.7826C179.927 25.5971 179.95 25.6669 180.068 27.9474C180.162 29.6694 180.279 30.3209 180.538 30.4838C180.726 30.6002 181.548 30.7165 182.371 30.7165C183.17 30.7165 184.18 30.8561 184.58 31.019C185.003 31.2052 185.637 31.6706 185.99 32.0662C186.436 32.5781 186.648 33.0668 186.648 33.6253C186.648 34.0674 186.46 34.8353 186.225 35.3007C186.013 35.7661 185.449 36.3944 185.003 36.6737C184.556 36.9529 183.851 37.2554 183.475 37.3485C183.099 37.4183 182.347 37.395 181.83 37.2554C181.219 37.0925 180.796 37.0925 180.585 37.2321C180.397 37.395 180.303 38.4189 180.303 40.7925C180.279 43.7943 180.326 44.1434 180.773 44.632C181.031 44.9113 181.313 45.1672 181.431 45.1672C181.525 45.1905 182.183 45.2371 182.888 45.2603C183.875 45.3069 184.392 45.493 185.097 46.005C185.614 46.354 186.248 47.0754 186.507 47.5873C186.859 48.2389 187 48.9603 187 49.9376C187 51.0546 186.883 51.4967 186.53 51.8923C186.272 52.1715 185.473 52.6602 184.768 52.986C183.64 53.5212 183.264 53.591 181.83 53.4979C180.679 53.4049 179.739 53.1722 178.658 52.6602C177.812 52.2879 176.59 51.4967 175.955 50.915C175.297 50.3332 174.451 49.2628 174.028 48.4949C173.629 47.7502 173.182 46.6565 173.041 46.0748C172.924 45.493 172.736 43.3987 172.665 41.4208C172.571 39.4428 172.43 37.7208 172.36 37.6277C172.266 37.5347 171.561 37.3718 170.785 37.2787C169.61 37.1391 169.328 37.0227 169.07 36.534C168.882 36.1384 168.788 35.2309 168.835 33.6951C168.882 31.88 168.999 31.3448 169.328 31.019C169.61 30.7398 170.245 30.5536 172.665 30.3675L172.806 28.7386C172.9 27.831 173.159 26.7141 173.441 26.1788C173.699 25.6669 174.216 24.9688 174.592 24.6198C174.945 24.2707 175.509 23.8984 175.838 23.7588C176.167 23.6424 176.472 23.5261 176.543 23.5261V23.5261ZM3.35099 27.3424C3.53899 27.3889 3.93848 27.482 4.22047 27.5518C4.54947 27.6449 4.90196 28.0172 5.11346 28.5059C5.30145 28.948 5.65395 29.3901 5.86544 29.4599C6.12394 29.553 6.96992 29.3203 7.9334 28.8782C8.84989 28.4826 10.0954 27.9939 10.7534 27.8078C11.3878 27.5983 12.5158 27.4587 13.2208 27.4587C13.9258 27.4587 15.1008 27.6216 15.8058 27.831C16.5107 28.0405 17.7327 28.5291 18.5082 28.9247C19.2837 29.297 20.4352 30.158 21.0697 30.8096C21.6806 31.4612 22.5031 32.6247 22.8556 33.3926C23.2081 34.1605 23.6311 35.3473 23.7721 36.0221C23.9131 36.6737 24.0306 37.8372 24.0306 38.5818C24.0306 39.3032 23.8896 40.4434 23.7251 41.0717C23.5606 41.7233 23.1846 42.7006 22.9026 43.2824C22.6441 43.8641 21.8686 44.8182 21.2342 45.4465C20.5762 46.0515 19.5422 46.7729 18.9077 47.0521C17.9207 47.5175 17.2862 47.5873 13.2208 47.7037C9.43738 47.7968 8.52089 47.8898 7.34592 48.6345L7.39291 53.242C7.41641 56.9884 7.34592 57.9425 7.04042 58.5243C6.85242 58.8966 6.42943 59.4551 6.12394 59.7576C5.84194 60.0368 5.16046 60.3626 4.64347 60.479C4.10298 60.5953 3.35099 60.5953 2.881 60.479C2.43451 60.3859 1.80002 60.1066 1.49453 59.8739C1.18903 59.6412 0.742541 59.1991 0.507545 58.8733C0.24905 58.5475 0.0375541 57.9193 0.0140545 57.4771C-0.00944503 57.035 -0.00944503 50.4496 0.0610536 29.0876L0.578044 28.5059C0.883538 28.1801 1.54153 27.7612 2.05852 27.5751C2.57551 27.3889 3.16299 27.2958 3.35099 27.3424V27.3424ZM8.45039 35.5567C7.83941 36.1384 7.81591 36.3013 7.81591 38.2328C7.81591 40.234 7.81591 40.2573 8.45039 40.5132C8.82639 40.6528 10.0014 40.839 11.1058 40.9088C12.6098 41.0019 13.3618 40.9554 14.1608 40.6528C14.7483 40.4667 15.5003 39.978 15.8528 39.5824C16.3697 39.0239 16.5107 38.6283 16.5107 37.7674C16.5342 36.9529 16.3697 36.4642 15.9938 35.9756C15.6883 35.6032 15.0303 35.0913 14.5133 34.8586C13.8866 34.5794 13.025 34.4475 11.9283 34.463C11.0118 34.463 10.0249 34.5794 9.69587 34.6957C9.36688 34.8353 8.82639 35.2076 8.45039 35.5567ZM117.911 27.4587C118.287 27.4587 118.898 27.6449 119.274 27.9241C119.65 28.1801 120.097 28.9015 120.355 29.6228C120.59 30.2744 120.919 31.8335 121.084 33.0435C121.272 34.5794 121.295 37.7441 121.201 43.5151C121.084 49.5886 120.966 52.1483 120.708 53.1722C120.52 53.9401 120.05 55.1036 119.674 55.7319C119.321 56.3834 118.287 57.5702 117.394 58.4079C116.454 59.3155 115.162 60.2463 114.269 60.6884C113.423 61.084 111.895 61.6425 110.861 61.8984C109.827 62.1544 108.3 62.3638 107.454 62.3638C106.608 62.3638 105.292 62.2009 104.517 62.0148C103.741 61.8054 102.59 61.4098 101.932 61.084C101.297 60.7815 100.263 60.1066 99.6522 59.5947C98.9237 58.9897 98.4302 58.3381 98.2657 57.7796C98.1247 57.291 98.0542 56.4765 98.1482 55.9646C98.2187 55.4526 98.5242 54.8011 98.8062 54.4985C99.1117 54.2193 99.6757 53.8703 100.052 53.7306C100.639 53.5445 100.992 53.6143 102.167 54.1495C103.248 54.6149 104.047 54.8011 105.574 54.8709C107.008 54.9407 107.9 54.8709 108.746 54.6149C109.404 54.4055 110.368 53.9168 110.932 53.5212C111.613 53.0325 112.107 52.4275 112.506 51.5432C112.835 50.8451 113.07 50.2169 113.047 50.147C113 50.054 112.083 50.2867 110.979 50.6124C109.851 50.9615 108.112 51.2873 106.984 51.3571C105.715 51.4502 104.517 51.3804 103.694 51.1942C102.989 51.0313 101.908 50.659 101.297 50.3565C100.663 50.054 99.6992 49.3326 99.1117 48.7508C98.5242 48.1691 97.7957 47.215 97.4902 46.61C97.1847 45.9817 96.7382 44.8647 96.5032 44.0968C96.2447 43.1893 96.0802 41.956 96.0802 40.6063C96.0802 39.373 96.2682 37.8837 96.5032 36.9994C96.7147 36.1617 97.2082 34.8353 97.6077 34.0441C97.9837 33.2297 98.9002 31.9266 99.6757 31.1354C100.428 30.3209 101.556 29.3901 102.19 29.0411C102.825 28.7153 103.976 28.2499 104.752 28.0405C105.856 27.7147 106.726 27.6681 108.629 27.7612C110.462 27.831 111.543 28.0172 114.504 29.0876L115.538 28.436C116.125 28.087 116.713 27.7147 116.901 27.6449C117.065 27.5518 117.535 27.482 117.911 27.4587V27.4587ZM105.339 35.7661C104.893 36.0221 104.141 36.8133 103.718 37.4881C103.248 38.2095 102.848 39.1403 102.801 39.6755C102.731 40.3038 102.848 40.9088 103.177 41.5371C103.436 42.049 104 42.7937 104.446 43.2126C104.869 43.6314 105.645 44.1434 106.162 44.3528C106.679 44.5622 107.642 44.7484 108.276 44.7484C108.934 44.7484 109.71 44.6088 110.039 44.4459C110.368 44.283 111.026 43.8176 111.543 43.422C112.036 43.0264 112.694 42.2818 113 41.7698C113.352 41.1881 113.564 40.4667 113.564 39.8384C113.564 39.3032 113.376 38.4655 113.117 38.0001C112.882 37.5114 112.271 36.7667 111.778 36.3479C111.284 35.929 110.344 35.4403 109.686 35.2542C109.052 35.0448 108.253 34.9051 107.924 34.9284C107.595 34.9284 107.078 35.0215 106.749 35.1146C106.42 35.2076 105.786 35.5102 105.339 35.7661V35.7661ZM80.923 0C81.158 0 81.4165 0.162891 81.487 0.349051C81.5575 0.535212 81.6045 1.60564 81.6045 2.7226C81.6045 3.86283 81.487 4.93326 81.3695 5.11942C81.2285 5.32885 80.641 5.51501 79.8185 5.58482C78.9256 5.66239 78.3694 5.60033 78.1501 5.39866C77.9621 5.23577 77.9151 4.90999 77.9856 4.58421C78.0796 4.30497 78.4556 3.44397 78.8551 2.67606C79.231 1.90815 79.748 1.00061 80.0065 0.628292C80.2415 0.279241 80.6645 0 80.923 0V0ZM83.5315 0C83.6255 0 84.025 0.349051 84.3775 0.744643C84.7299 1.1635 85.3409 2.23393 85.6934 3.14146C86.0694 4.049 86.3044 4.95653 86.2104 5.16596C86.0929 5.49174 85.8109 5.58482 84.8944 5.58482C84.025 5.58482 83.602 5.46847 83.2495 5.11942C82.85 4.72383 82.7795 4.30497 82.7325 2.60625C82.709 1.09369 82.7795 0.488672 83.0145 0.279241C83.2025 0.11635 83.4375 0 83.5315 0V0ZM78.2676 0.395592C78.2911 0.442132 77.9621 1.07042 77.5156 1.7918C77.0691 2.53644 76.5521 3.74648 76.3406 4.46786C76.1291 5.2125 75.8236 5.88733 75.6826 5.98041C75.5181 6.05022 74.8131 6.25965 74.1551 6.44581C73.0742 6.70179 72.8627 6.70179 72.5572 6.39927C72.3457 6.18984 72.2752 5.88733 72.3692 5.63136C72.4397 5.42193 72.8157 4.81691 73.1447 4.30497C73.4972 3.79302 74.4606 2.7226 75.2831 1.93142C76.3171 0.954074 77.0221 0.465402 77.4921 0.418862C77.8916 0.372321 78.2206 0.372321 78.2676 0.395592V0.395592ZM86.9624 0.605022C87.3149 0.698103 87.9259 0.954074 88.3019 1.1635C88.6779 1.39621 89.5709 2.16412 90.2523 2.88549C90.9103 3.60686 91.6858 4.63075 91.9208 5.16596C92.2263 5.81752 92.3203 6.25965 92.1558 6.44581C92.0148 6.65525 91.6153 6.70179 90.9573 6.60871C90.3933 6.51562 89.6178 6.32946 89.2419 6.16657C88.7014 5.95714 88.4664 5.65463 88.2314 4.86345C88.0434 4.30497 87.5969 3.25781 87.2444 2.55971C86.8919 1.86161 86.5394 1.09369 86.4689 0.860993C86.3749 0.535212 86.4454 0.488672 86.9624 0.605022V0.605022ZM79.6775 7.237C80.4765 7.21373 81.017 7.33008 81.252 7.56278C81.5105 7.81875 81.6045 8.42377 81.6045 9.77344C81.6045 11.3325 81.534 11.7049 81.1345 12.1004C80.7585 12.4728 80.359 12.5658 79.0195 12.5658C77.6801 12.5658 77.2806 12.4728 76.9046 12.1004C76.5756 11.7747 76.4581 11.4256 76.5521 10.9835C76.5991 10.6344 76.7166 9.88979 76.7871 9.30804C76.8576 8.72628 77.0221 8.14453 77.1161 7.98164C77.2336 7.81875 77.5626 7.60932 77.8681 7.4697C78.1736 7.35335 78.9961 7.237 79.6775 7.237V7.237ZM84.6124 7.21373C85.2234 7.21373 86.0694 7.30681 86.4924 7.44643C87.1034 7.63259 87.2914 7.84202 87.4559 8.54012C87.5734 9.02879 87.7379 9.98287 87.8084 10.6344C87.9259 11.5885 87.8554 11.9376 87.5734 12.2168C87.3149 12.4728 86.7039 12.5658 85.4584 12.5658C84.025 12.5658 83.6255 12.4728 83.2495 12.1004C82.8735 11.7281 82.7795 11.3093 82.756 9.79671C82.756 8.37723 82.8265 7.86529 83.132 7.58605C83.367 7.35335 83.9545 7.21373 84.6124 7.21373V7.21373ZM74.5076 8.1678C74.9306 8.14453 75.3066 8.28415 75.3536 8.42377C75.4006 8.58666 75.3536 9.23823 75.2361 9.88979C75.1421 10.5181 75.0481 11.1929 75.0481 11.3325C75.0246 11.4954 74.8131 11.8445 74.5546 12.1004C74.2021 12.4495 73.7791 12.5658 72.9097 12.5658C72.0872 12.5658 71.6172 12.4495 71.3587 12.147C71.0767 11.8445 71.0062 11.5187 71.1472 10.7042C71.2177 10.1225 71.4527 9.42439 71.6642 9.16842C71.8522 8.88917 72.3927 8.56339 72.8862 8.42377C73.3562 8.30742 74.0846 8.19107 74.5076 8.1678V8.1678ZM89.8998 8.14453C90.1818 8.14453 90.9808 8.30742 91.6623 8.49358C92.3203 8.67974 92.9313 8.91244 92.9783 9.00552C93.0488 9.12187 93.1898 9.70363 93.3073 10.3552C93.4483 10.9835 93.4718 11.6583 93.3778 11.8212C93.3073 11.9841 92.9078 12.2168 92.5318 12.3564C92.1558 12.4728 91.4743 12.5658 91.0748 12.5658C90.6518 12.5658 90.1113 12.3797 89.8763 12.147C89.6178 11.9143 89.3594 11.2162 89.2654 10.4715C89.1714 9.77344 89.1479 8.95898 89.2419 8.65647C89.3359 8.33069 89.5709 8.14453 89.8998 8.14453V8.14453ZM95.1872 9.30804C95.4222 9.28477 95.7747 9.47093 96.0097 9.70363C96.2212 9.93633 96.5032 10.4948 96.6207 10.9369C96.7617 11.4954 96.7617 11.8445 96.5737 12.0306C96.4327 12.1935 96.0802 12.3331 95.7747 12.3331C95.4692 12.3331 95.1637 12.1935 95.0697 12.0306C94.9757 11.891 94.8348 11.3325 94.7408 10.8206C94.6468 10.3086 94.6233 9.75017 94.6938 9.58728C94.7643 9.44766 94.9757 9.30804 95.1872 9.30804V9.30804ZM69.6432 9.54074C69.7607 9.54074 69.9017 9.7269 69.9722 9.93633C70.0192 10.169 69.9957 10.7275 69.9017 11.1696C69.7607 11.7747 69.5962 11.9841 69.2672 11.9841C68.8677 11.9841 68.7972 11.8445 68.8442 11.1231C68.8677 10.6344 69.0087 10.0992 69.1732 9.88979C69.3142 9.70363 69.5257 9.54074 69.6432 9.54074V9.54074ZM73.0507 14.1948C73.7557 14.1948 74.4606 14.3344 74.6251 14.474C74.7896 14.6369 75.0246 15.4513 75.1186 16.2891C75.2361 17.2897 75.2126 17.9878 75.0481 18.3136C74.9071 18.6161 74.5076 18.9186 74.1551 18.9884C73.7792 19.0582 73.2622 19.2211 72.9802 19.3374C72.6747 19.4538 72.2282 19.5469 71.9697 19.5469C71.7112 19.5469 71.4527 19.384 71.3822 19.1978C71.3117 19.0117 71.1942 17.9878 71.1237 16.9174C70.9827 15.2884 71.0297 14.9394 71.3587 14.5903C71.6407 14.3111 72.1342 14.1948 73.0507 14.1948V14.1948ZM79.043 14.1948C80.3825 14.1948 80.9935 14.2878 81.252 14.5438C81.4635 14.7532 81.6045 15.3117 81.6045 15.94C81.6045 16.6148 81.4635 17.1268 81.205 17.406C80.9465 17.6853 80.2415 17.918 79.372 18.011C78.5966 18.1274 77.7271 18.1274 77.4451 18.0576C77.1396 17.9878 76.8106 17.662 76.6696 17.3362C76.5521 17.0104 76.4346 16.3356 76.4111 15.8469C76.4111 15.2884 76.5521 14.7765 76.7871 14.5671C77.0691 14.2878 77.6566 14.1948 79.043 14.1948ZM85.3879 14.1948C86.8449 14.1948 87.3149 14.2878 87.6204 14.5903C87.9024 14.8929 87.9964 15.335 87.9259 16.2193C87.8789 16.8941 87.6674 17.5922 87.4794 17.8016C87.1974 18.0809 86.7979 18.1274 85.3644 17.9878C84.1425 17.8714 83.4845 17.7085 83.2025 17.406C82.9205 17.1501 82.7795 16.6148 82.756 15.9633C82.756 15.2884 82.8735 14.7998 83.132 14.5671C83.414 14.2878 84.0015 14.1948 85.3879 14.1948V14.1948ZM91.5448 14.1948C92.5318 14.1948 92.9783 14.3111 93.2603 14.5903C93.5658 14.9394 93.6128 15.2884 93.4953 16.5218C93.4013 17.3595 93.2368 18.3368 93.1193 18.7324C93.0018 19.1047 92.7668 19.5003 92.6023 19.5701C92.4378 19.6632 91.6388 19.4538 90.8163 19.1047C90.0173 18.779 89.3124 18.3834 89.2654 18.267C89.2184 18.1274 89.2419 17.2664 89.3359 16.3356C89.4299 15.2031 89.5943 14.5671 89.8293 14.4275C90.0173 14.2878 90.7928 14.1948 91.5448 14.1948ZM95.7277 14.1948C95.8452 14.1948 96.1507 14.2878 96.4092 14.4275C96.7852 14.6136 96.8792 14.8929 96.8792 15.7073C96.8792 16.2891 96.6207 17.5922 96.2917 18.6161C95.9001 19.8571 95.5476 20.5552 95.2342 20.7104C94.8817 20.8733 94.6703 20.85 94.4118 20.594C94.2003 20.3846 94.1063 20.0588 94.2238 19.7098C94.2943 19.4305 94.4588 18.8255 94.5528 18.3834C94.6703 17.9412 94.7408 16.9639 94.7408 16.2425C94.7408 15.3117 94.8347 14.823 95.1167 14.5671C95.3282 14.3576 95.6102 14.1948 95.7277 14.1948ZM69.4787 14.6369C69.6197 14.7532 69.8077 15.8004 69.9252 16.9639C70.0192 18.1274 70.0427 19.2444 69.9722 19.4305C69.9017 19.6167 69.6902 19.733 69.5022 19.6632C69.2907 19.5934 69.0557 19.0582 68.9147 18.3834C68.7972 17.7318 68.6563 16.7079 68.6328 16.1029C68.6093 15.4048 68.7032 14.8929 68.9147 14.7067C69.1027 14.5438 69.3142 14.5205 69.4787 14.6369V14.6369ZM80.265 19.5701C80.923 19.5469 81.1815 19.6632 81.3695 20.0123C81.5105 20.2682 81.6045 22.1764 81.6045 24.2474C81.628 27.5052 81.581 28.087 81.2285 28.3895C80.876 28.7153 80.782 28.6687 80.1475 27.9241C79.748 27.482 79.1606 26.5279 78.8551 25.8298C78.5261 25.1317 78.0091 23.8053 77.7036 22.921C77.3981 22.0135 77.1396 21.0594 77.1396 20.7569C77.1396 20.4777 77.2806 20.1752 77.4451 20.0821C77.5861 19.989 78.1031 19.8494 78.5496 19.7563C78.996 19.6632 79.7715 19.5934 80.265 19.5701ZM84.8709 19.64C85.7169 19.733 86.6099 19.9192 86.8449 20.0355C87.0564 20.1519 87.2444 20.4544 87.2444 20.7104C87.2444 20.9663 86.9624 22.0368 86.6334 23.0839C86.2809 24.1544 85.7169 25.5971 85.3644 26.2952C85.0119 26.9933 84.4244 27.831 84.0955 28.1568C83.555 28.6687 83.461 28.692 83.132 28.3895C82.8265 28.1103 82.756 27.3889 82.756 24.2474C82.7325 21.5714 82.8265 20.3148 83.038 19.9657C83.2965 19.5236 83.461 19.5003 84.8709 19.64V19.64ZM74.8601 20.7336C75.0716 20.7104 75.3301 20.85 75.4241 20.9896C75.4946 21.1525 75.7531 21.967 75.9881 22.8047C76.2231 23.6424 76.8341 25.2015 77.3511 26.2952C77.8681 27.3889 78.2911 28.2964 78.2441 28.3197C78.2206 28.343 77.8681 28.2964 77.4921 28.2033C77.0221 28.1103 76.1291 27.4354 74.8836 26.2021C73.8497 25.155 72.8157 23.9217 72.6042 23.433C72.3927 22.9676 72.2517 22.3393 72.3222 22.06C72.3927 21.711 72.7922 21.4085 73.4502 21.1292C73.9906 20.9198 74.6251 20.7336 74.8601 20.7336V20.7336ZM89.5239 20.7336C89.7588 20.7336 90.4873 20.9198 91.1218 21.1525C91.9913 21.455 92.3203 21.6877 92.3673 22.06C92.3908 22.3393 92.2733 22.8512 92.0853 23.2003C91.9208 23.5726 91.3333 24.4103 90.7928 25.0619C90.2758 25.7367 89.3124 26.7141 88.6544 27.226C87.9964 27.7612 87.2209 28.1568 86.8919 28.1568C86.4454 28.1568 86.3279 28.0637 86.4454 27.7379C86.5159 27.5285 86.8919 26.7606 87.2444 26.0625C87.6204 25.3644 88.0904 24.1078 88.2784 23.2701C88.4899 22.4324 88.7719 21.5248 88.8894 21.2223C89.0069 20.9431 89.3124 20.7104 89.5239 20.7336V20.7336ZM59.8674 20.9896C60.3844 21.0362 61.0894 21.2689 61.4654 21.4783C61.8179 21.6877 62.3349 22.3626 62.5934 22.9676C63.0869 24.0613 63.1104 24.294 62.9929 31.0656C62.9224 34.9051 62.9459 39.3032 63.0634 40.839C63.1809 42.3748 63.4158 44.1434 63.5803 44.7949C63.8153 45.7723 64.0033 46.0282 64.6848 46.354C65.1783 46.61 66.0478 46.7729 66.8703 46.7729C67.5988 46.7729 68.5857 46.9358 69.0322 47.1219C69.5022 47.3081 70.0192 47.7735 70.2072 48.1691C70.3952 48.5647 70.5597 49.3093 70.5597 49.8445C70.5832 50.4728 70.4187 51.0546 70.1367 51.4269C69.8782 51.7759 69.2437 52.125 68.6092 52.2879C67.9983 52.4508 66.6353 52.5904 65.5778 52.5904C64.4968 52.5904 62.9929 52.4275 62.2174 52.2413C61.4419 52.0319 60.3374 51.6363 59.7499 51.3571C59.1624 51.0778 58.2694 50.4263 57.7525 49.9143C57.2355 49.3791 56.6245 48.4483 56.3895 47.82C56.0605 46.8427 55.99 45.7723 55.9665 41.1881C55.943 38.1862 55.8725 33.253 55.7785 30.2511C55.708 27.2493 55.708 24.4103 55.802 23.9682C55.896 23.5261 56.178 22.8978 56.413 22.572C56.648 22.2462 57.306 21.7575 57.8935 21.455C58.5984 21.0827 59.2094 20.9431 59.8674 20.9896V20.9896ZM129.896 20.9896C130.413 21.0362 131.118 21.2689 131.494 21.4783C131.847 21.6877 132.34 22.3393 132.599 22.921C133.045 23.9217 133.069 24.4336 133.045 32.741C133.022 38.7214 133.116 42.0956 133.304 43.2824C133.468 44.2364 133.68 45.2603 133.797 45.5396C133.915 45.8421 134.385 46.2377 134.831 46.4238C135.277 46.61 136.241 46.7729 136.946 46.7729C137.651 46.7729 138.614 46.9358 139.061 47.1219C139.554 47.3314 140.024 47.7735 140.259 48.2156C140.471 48.6345 140.635 49.4024 140.635 49.9143C140.635 50.4728 140.447 51.0778 140.165 51.4269C139.93 51.7527 139.296 52.125 138.802 52.2879C138.309 52.4275 136.946 52.5671 135.771 52.5671C134.572 52.5904 133.045 52.4275 132.246 52.2413C131.471 52.0319 130.366 51.6363 129.779 51.3571C129.215 51.0778 128.298 50.4263 127.781 49.9143C127.194 49.3326 126.677 48.5414 126.442 47.82C126.113 46.8427 126.042 44.9113 125.737 23.6191L126.301 22.8047C126.606 22.3626 127.311 21.7575 127.899 21.455C128.627 21.0827 129.238 20.9431 129.896 20.9896ZM39.8928 27.7845C41.6318 27.831 42.3133 27.9706 43.7702 28.5757C44.7337 28.9713 46.3082 29.8323 47.2482 30.4838C48.3761 31.2595 49.3318 32.167 50.1151 33.2064C50.7496 34.0907 51.5016 35.3705 51.7601 36.0686C52.0421 36.7667 52.3711 38.1397 52.5356 39.0937C52.7471 40.5365 52.7236 41.1648 52.3946 42.817C52.1831 43.9107 51.6661 45.4698 51.2666 46.3075C50.7496 47.3314 49.9271 48.4018 48.7286 49.5886C47.4832 50.8219 46.4727 51.5665 45.4152 52.0785C44.5692 52.4741 43.0417 52.9627 42.0078 53.1722C40.6918 53.4514 39.5638 53.5212 38.2478 53.4281C37.2138 53.3583 35.7804 53.1256 35.0754 52.9162C34.3704 52.7067 33.1954 52.2181 32.4904 51.8225C31.7855 51.4036 30.7045 50.5892 30.0935 49.9609C29.459 49.3559 28.707 48.4251 28.378 47.8666C28.0725 47.3314 27.579 46.2609 27.3205 45.493C27.0385 44.7251 26.78 43.2591 26.7095 42.2352C26.6155 40.9786 26.686 39.8151 26.9445 38.6283C27.156 37.6743 27.7435 35.9988 28.284 34.9051C29.036 33.3926 29.6235 32.5549 30.916 31.275C31.9734 30.2511 33.1249 29.3901 34.0179 28.9713C34.7934 28.5989 35.9684 28.1568 36.6029 27.9939C37.2608 27.831 38.7178 27.7379 39.8928 27.7845V27.7845ZM35.0284 37.2554C34.5114 37.8604 34.0414 38.7214 33.9004 39.3264C33.7124 40.0711 33.7124 40.6994 33.9004 41.5371C34.0414 42.1654 34.2764 42.8868 34.3939 43.0962C34.5114 43.3289 35.0049 43.9572 35.4984 44.4691C35.9684 45.0044 36.7439 45.6094 37.1903 45.8421C37.6368 46.0515 38.4358 46.3075 38.9528 46.4006C39.5638 46.4936 40.3393 46.4238 41.1383 46.1911C42.0078 45.9352 42.7362 45.493 43.6762 44.6088C44.4047 43.9339 45.1332 43.0031 45.3447 42.4679C45.5797 41.8474 45.6424 41.2268 45.5327 40.6063C45.4387 40.0944 45.2037 39.2566 44.9687 38.7447C44.7572 38.2328 44.1462 37.395 43.6292 36.9064C43.1357 36.3944 42.1958 35.7429 41.5378 35.4403C40.9033 35.1611 39.9868 34.9051 39.5403 34.9051C39.0938 34.9051 38.0833 35.2076 37.3078 35.5567C36.4384 35.9756 35.5689 36.6039 35.0284 37.2554ZM154.101 27.7147C155.017 27.7147 156.333 27.8543 157.038 28.0405C157.743 28.2266 159.13 28.7618 160.093 29.2505C161.221 29.809 162.443 30.67 163.5 31.6706C164.464 32.5549 165.451 33.7882 165.897 34.5794C166.297 35.324 166.814 36.5806 167.049 37.3485C167.284 38.1629 167.472 39.5126 167.472 40.6063C167.472 41.8862 167.307 43.0031 166.931 44.2132C166.626 45.1672 166.038 46.5402 165.615 47.2383C165.192 47.9364 164.205 49.0999 163.453 49.8213C162.701 50.5194 161.62 51.3804 161.033 51.7061C160.446 52.0552 159.177 52.5671 158.213 52.8696C156.827 53.2885 155.91 53.4049 153.983 53.4049C152.15 53.3816 151.093 53.2652 149.871 52.8929C148.978 52.6137 147.544 51.9388 146.722 51.3804C145.876 50.8219 144.842 49.9609 144.395 49.4489C143.972 48.937 143.291 47.9131 142.915 47.1685C142.539 46.4471 142.069 45.144 141.857 44.2597C141.575 43.1427 141.505 42.0956 141.599 40.6063C141.693 39.2334 141.928 37.907 142.327 36.7667C142.656 35.8127 143.291 34.463 143.714 33.7882C144.113 33.0901 145.1 31.9498 145.876 31.2052C146.651 30.4605 147.826 29.553 148.461 29.204C149.119 28.8316 150.27 28.343 151.046 28.1103C151.821 27.9008 153.208 27.7147 154.101 27.7147V27.7147ZM151.633 35.7661C151.187 36.0454 150.411 36.6737 149.941 37.2089C149.424 37.7441 148.931 38.6051 148.79 39.1403C148.649 39.6988 148.602 40.583 148.672 41.1182C148.743 41.6767 149.025 42.5145 149.26 42.9799C149.518 43.4685 150.059 44.2132 150.505 44.6553C150.928 45.0742 151.657 45.6094 152.103 45.8421C152.55 46.0515 153.349 46.3075 153.866 46.4006C154.477 46.4936 155.229 46.4238 155.981 46.2144C156.709 45.9817 157.626 45.4465 158.425 44.7484C159.106 44.1434 159.835 43.3522 159.999 42.9799C160.187 42.6308 160.328 41.7931 160.328 41.1182C160.328 40.4667 160.187 39.5126 159.976 39.0239C159.788 38.5585 159.177 37.6743 158.636 37.0925C158.072 36.4875 157.203 35.8127 156.686 35.5567C156.169 35.3007 155.276 35.0448 154.688 34.9982C154.101 34.9517 153.372 34.9982 153.043 35.0913C152.714 35.2076 152.08 35.5102 151.633 35.7661V35.7661ZM76.5051 33.0435C76.9751 33.0435 77.6566 33.1831 78.0326 33.3693C78.3851 33.5555 78.9491 33.9976 79.3015 34.3699C79.654 34.719 80.0535 35.324 80.1945 35.7196C80.3355 36.1152 80.5 38.9076 80.594 42.3516C80.7115 47.9131 80.688 48.3785 80.2415 49.9143C79.9595 50.7986 79.513 51.7527 79.2311 52.0086C78.8551 52.3577 78.3381 52.4973 77.1631 52.5439C75.8471 52.6137 75.4946 52.5439 74.8131 52.0785C74.3666 51.7992 73.7791 51.2407 73.5207 50.8917C73.0507 50.2634 73.0272 49.9143 72.8862 35.9523L73.5442 34.9284C73.8966 34.3699 74.5076 33.7184 74.9071 33.4857C75.2831 33.2297 76.0116 33.0435 76.5051 33.0435V33.0435ZM88.5604 33.0901C89.3829 33.1366 89.9938 33.346 90.5578 33.7649C91.0043 34.0907 91.5683 34.7655 91.8268 35.2775C92.2263 36.0919 92.2968 36.79 92.3673 42.3516C92.4378 47.4477 92.3908 48.7508 92.0853 49.9143C91.8503 50.7055 91.4508 51.5665 91.1218 51.8923C90.5813 52.4042 90.3228 52.474 88.7954 52.474C87.2914 52.474 86.9859 52.4042 86.2339 51.8225C85.6934 51.4502 85.2234 50.8219 85.0119 50.1936C84.7064 49.3791 84.6359 48.0993 84.7064 42.4679C84.7769 36.1384 84.8004 35.673 85.2704 34.9051C85.5289 34.463 86.1164 33.8347 86.5629 33.5555C87.1974 33.1133 87.5969 33.0203 88.5604 33.0901V33.0901Z" fill="#9323A8"/>
</svg>