<svg width="718" height="718" viewBox="0 0 718 718" fill="none" xmlns="http://www.w3.org/2000/svg">
<path opacity="0.4" d="M363.023 385C360.69 384.667 357.69 384.667 355.023 385C296.357 383 249.69 335 249.69 275.999C249.69 215.666 298.357 166.666 359.023 166.666C419.357 166.666 468.357 215.666 468.357 275.999C468.023 335 421.69 383 363.023 385Z" stroke="#292D32" stroke-width="50" stroke-linecap="round" stroke-linejoin="round"/>
<path opacity="0.34" d="M583.66 605.003C524.327 659.337 445.66 692.337 358.993 692.337C272.326 692.337 193.659 659.337 134.326 605.003C137.659 573.67 157.659 543.003 193.326 519.003C284.659 458.337 433.993 458.337 524.66 519.003C560.327 543.003 580.327 573.67 583.66 605.003Z" stroke="#292D32" stroke-width="50" stroke-linecap="round" stroke-linejoin="round"/>
<path d="M359 692.333C543.093 692.333 692.333 543.093 692.333 359C692.333 174.905 543.093 25.6665 359 25.6665C174.905 25.6665 25.6665 174.905 25.6665 359C25.6665 543.093 174.905 692.333 359 692.333Z" stroke="#292D32" stroke-width="50" stroke-linecap="round" stroke-linejoin="round"/>
</svg>