<svg width="717" height="717" viewBox="0 0 717 717" fill="none" xmlns="http://www.w3.org/2000/svg">
<path d="M591.667 458.333V356.25C591.667 283.763 532.903 225 460.417 225H256.25C183.763 225 125 283.763 125 356.25V458.333C125 587.2 229.467 691.667 358.333 691.667C487.2 691.667 591.667 587.2 591.667 458.333Z" stroke="#48BF92" stroke-width="50"/>
<path d="M508.333 241.667V208.333C508.333 125.491 441.176 58.3333 358.333 58.3333C275.49 58.3333 208.333 125.491 208.333 208.333V241.667" stroke="#48BF92" stroke-width="50"/>
<path opacity="0.5" d="M591.666 425H691.666" stroke="#48BF92" stroke-width="50" stroke-linecap="round"/>
<path opacity="0.5" d="M125 425H25" stroke="#48BF92" stroke-width="50" stroke-linecap="round"/>
<path opacity="0.5" d="M441.666 75L524.999 25" stroke="#48BF92" stroke-width="50" stroke-linecap="round"/>
<path opacity="0.5" d="M274.999 75L191.666 25" stroke="#48BF92" stroke-width="50" stroke-linecap="round"/>
<path opacity="0.5" d="M641.667 625.007L575 598.34" stroke="#48BF92" stroke-width="50" stroke-linecap="round"/>
<path opacity="0.5" d="M641.667 224.993L575 251.66" stroke="#48BF92" stroke-width="50" stroke-linecap="round"/>
<path opacity="0.5" d="M75 625.007L141.667 598.34" stroke="#48BF92" stroke-width="50" stroke-linecap="round"/>
<path opacity="0.5" d="M75 224.993L141.667 251.66" stroke="#48BF92" stroke-width="50" stroke-linecap="round"/>
<path opacity="0.5" d="M358.333 675V458.333" stroke="#48BF92" stroke-width="50" stroke-linecap="round"/>
</svg>