<svg width="509" height="632" viewBox="0 0 509 632" fill="none" xmlns="http://www.w3.org/2000/svg">
<path opacity="0.5" d="M115.71 386.171L607.212 154.751M459.761 224.177C474.956 256.449 487.46 289.604 496.558 321.744C505.658 353.887 511.174 384.387 512.789 411.506C514.407 438.624 512.091 461.827 505.98 479.794C499.869 497.758 490.08 510.134 477.171 516.212C464.262 522.29 448.487 521.951 430.746 515.217C413.003 508.482 393.645 495.484 373.772 476.962C353.899 458.439 333.902 434.757 314.923 407.266C295.945 379.777 278.356 349.017 263.161 316.745C247.966 284.473 235.461 251.319 226.363 219.177C217.264 187.035 211.749 156.535 210.133 129.417C208.516 102.299 210.829 79.0946 216.942 61.1285C223.053 43.1632 232.842 30.7885 245.751 24.7102C258.66 18.632 274.435 18.9705 292.176 25.7053C309.917 32.4398 329.278 45.439 349.15 63.9615C369.024 82.483 389.02 106.165 407.998 133.656C426.976 161.146 444.566 191.905 459.761 224.177Z" stroke="#9323A8" stroke-width="40.7444" stroke-linecap="round"/>
<path d="M607.212 154.751C622.407 187.023 631.096 221.974 632.785 257.603C634.473 293.235 629.129 328.849 617.054 362.414C604.978 395.979 586.409 426.835 562.407 453.225C538.407 479.612 509.443 501.017 477.171 516.212C444.899 531.407 409.949 540.096 374.319 541.786C338.687 543.473 303.074 538.129 269.509 526.053C235.944 513.978 205.086 495.409 178.697 471.407C152.309 447.408 130.905 418.443 115.71 386.171C100.515 353.899 91.825 318.949 90.1365 283.318C88.448 247.688 93.7942 212.073 105.869 178.508C117.945 144.944 136.513 114.086 160.514 87.6971C184.515 61.3086 213.479 39.9053 245.751 24.7102C278.023 9.51516 312.973 0.824796 348.603 -0.862955C384.235 -2.55211 419.849 2.794 453.414 14.8691C486.98 26.9444 517.835 45.5137 544.225 69.5141C570.612 93.5153 592.017 122.479 607.212 154.751Z" stroke="#9323A8" stroke-width="40.7444"/>
</svg>