<svg width="623" height="567" viewBox="0 0 623 567" fill="none" xmlns="http://www.w3.org/2000/svg">
<path d="M75.8759 187.771H104.532C122.05 187.771 130.809 187.771 138.925 185.587C146.117 183.652 152.913 180.469 159.004 176.183C165.878 171.345 171.485 164.616 182.7 151.159L266.196 50.9619C280.05 34.3376 286.976 26.0255 293.027 25.1602C298.267 24.4111 303.536 26.3189 307.081 30.2488C311.177 34.7869 311.177 45.6069 311.177 67.247V499.077C311.177 520.719 311.177 531.539 307.081 536.077C303.536 540.007 298.267 541.915 293.027 541.164C286.979 540.299 280.05 531.988 266.196 515.364L182.7 415.167C171.485 401.71 165.878 394.979 159.004 390.142C152.913 385.856 146.117 382.673 138.925 380.74C130.809 378.555 122.05 378.555 104.532 378.555H75.8759C58.0677 378.555 49.1635 378.555 42.3617 375.09C36.3787 372.04 31.5143 367.175 28.4656 361.194C25 354.393 25 345.486 25 327.68V238.647C25 220.837 25 211.934 28.4656 205.132C31.5143 199.149 36.3787 194.285 42.3617 191.236C49.1635 187.771 58.0677 187.771 75.8759 187.771Z" stroke="#9323A8" stroke-width="50" stroke-linecap="round" stroke-linejoin="round"/>
<path opacity="0.5" d="M438.378 187.771C458.337 214.343 470.163 247.372 470.163 283.163C470.163 318.954 458.337 351.982 438.378 378.556M501.96 69.8557C560.505 122.257 597.352 198.407 597.352 283.163C597.352 367.919 560.505 444.068 501.96 496.47" stroke="#9323A8" stroke-width="50" stroke-linecap="round" stroke-linejoin="round"/>
</svg>