<svg width="718" height="718" viewBox="0 0 718 718" fill="none" xmlns="http://www.w3.org/2000/svg">
<path d="M359 359C414.228 359 459 314.228 459 259C459 203.772 414.228 159 359 159C303.772 159 259 203.772 259 259C259 314.228 303.772 359 359 359Z" stroke="#48BF92" stroke-width="50"/>
<path d="M359 692.333C543.095 692.333 692.334 543.095 692.334 359C692.334 174.905 543.095 25.6665 359 25.6665C174.905 25.6665 25.667 174.905 25.667 359C25.667 543.095 174.905 692.333 359 692.333Z" stroke="#48BF92" stroke-width="50"/>
<path opacity="0.5" d="M557.97 625.667C552.667 529.283 523.157 459 358.997 459C194.84 459 165.33 529.283 160.025 625.667" stroke="#48BF92" stroke-width="50" stroke-linecap="round"/>
</svg>